<svg xmlns="http://www.w3.org/2000/svg" id="ucla-ioes-logo" viewBox="0 0 249.581 44">
  <defs>
    <style>
      .cls-2{fill:#fff}
    </style>
  </defs>
  <path fill="#2774ae" fill-rule="evenodd" d="M92 0H0v44h92V0z"/>
  <path d="M14.71 26.23a19.118 19.118 0 010-2.22l1-12h3.85l-1 12.1c-.23 2.62.78 4.48 3.34 4.48s4-1.9 4.24-4.22L27.17 12H31l-1 12.22c-.42 4.71-3.48 8.23-8.43 8.23-3.85 0-6.34-2.55-6.81-6.22M31.9 22.17c.51-5.76 4.32-10.53 10.89-10.53a8.872 8.872 0 015.06 1.49l-.44 4.76a5.645 5.645 0 00-5-2.37c-4.1 0-6.34 2.9-6.66 6.57s1.49 6.48 5.46 6.48a7.294 7.294 0 005.49-2.47l-.4 4.9a11.003 11.003 0 01-5.37 1.5c-6.51 0-9.49-4.93-9-10.32M50.93 12h3.84l-1.41 16.3h7.51c0 .2-.35 3.77-.35 3.77H49.18L50.93 12zM70.93 19.49a5.671 5.671 0 00.29-.84h.06a4.547 4.547 0 00.15.85c.21.91 1.7 6 1.7 6h-4.85s2.6-5.85 2.65-6m1-8.39h-.27L61.14 32h4.08l1.48-3.18h7.4L75 32h4.1l-7.17-20.89z" class="cls-2"/>
  <g>
    <path d="M98.407 26.834h3.937c.048 2.328 1.584 2.832 3.696 2.832 1.92 0 2.904-.696 2.904-1.968 0-1.152-.72-1.608-3.072-2.04l-1.392-.264c-3.6-.624-5.713-2.256-5.713-5.353 0-2.904 2.209-5.064 6.673-5.064 4.656 0 6.984 2.064 7.128 5.568h-3.84c-.095-1.584-.936-2.4-3.216-2.4-1.776 0-2.616.648-2.616 1.728 0 1.2.792 1.681 2.904 2.088l1.44.265c4.105.744 5.905 2.304 5.905 5.208 0 3.6-2.88 5.4-7.248 5.4-4.874 0-7.466-2.304-7.49-6zM126.464 20.065V32.45h-3.649v-1.752a4.581 4.581 0 01-3.888 2.04c-2.448 0-4.296-1.488-4.296-4.56v-8.113h3.744v7.369c0 1.368.6 2.112 1.992 2.112a2.313 2.313 0 002.353-2.568v-6.913zM127.879 28.514h3.648c.144 1.344.816 1.8 2.376 1.8 1.513 0 2.089-.456 2.089-1.2s-.456-1.104-2.136-1.368l-1.608-.264c-2.617-.409-4.177-1.584-4.177-3.792 0-2.473 1.944-3.913 5.569-3.913 4.176 0 5.64 1.825 5.76 4.249h-3.48c-.049-1.344-.937-1.752-2.28-1.752s-1.897.456-1.897 1.175c0 .745.6 1.057 1.8 1.248l1.848.265c2.929.456 4.345 1.632 4.345 3.84 0 2.568-2.184 4.009-5.905 4.009-3.792 0-5.736-1.225-5.952-4.297zM145.759 22.802v5.784c0 .912.456 1.08 1.416 1.08h.96v2.784a14.109 14.109 0 01-1.729.096c-3.096 0-4.392-1.008-4.392-3.552v-6.192h-1.848v-2.737h1.848v-3.672h3.744v3.672h2.377v2.737zM157.88 32.45a3.512 3.512 0 01-.313-1.393 4.707 4.707 0 01-3.96 1.681c-2.592 0-4.512-1.32-4.512-3.792 0-2.137 1.272-3.553 4.849-3.864l1.944-.17c1.056-.118 1.608-.43 1.608-1.223 0-.744-.408-1.248-1.896-1.248-1.464 0-2.064.36-2.185 1.632h-3.72c.192-2.736 1.945-4.296 5.929-4.296 3.888 0 5.52 1.464 5.52 3.817v6.576a4.338 4.338 0 00.505 2.28zm-.384-4.872v-.912a1.936 1.936 0 01-1.248.48l-1.537.168c-1.272.144-1.8.624-1.8 1.488s.648 1.416 1.825 1.416a2.472 2.472 0 002.76-2.64zM163.134 20.065h3.744V32.45h-3.744zm.097-4.585h3.576v3.17h-3.576zM180.895 24.338v8.112h-3.744v-7.368c0-1.368-.6-2.112-1.992-2.112a2.313 2.313 0 00-2.353 2.568v6.912h-3.744V20.065h3.648v1.752a4.613 4.613 0 013.888-2.04c2.449 0 4.297 1.489 4.297 4.56zM191.215 32.45a3.515 3.515 0 01-.312-1.393 4.707 4.707 0 01-3.96 1.681c-2.593 0-4.512-1.32-4.512-3.792 0-2.137 1.271-3.553 4.848-3.864l1.944-.17c1.056-.118 1.608-.43 1.608-1.223 0-.744-.408-1.248-1.896-1.248-1.464 0-2.064.36-2.184 1.632h-3.72c.192-2.736 1.944-4.296 5.928-4.296 3.889 0 5.52 1.464 5.52 3.817v6.576a4.343 4.343 0 00.505 2.28zm-.384-4.872v-.912a1.936 1.936 0 01-1.248.48l-1.536.168c-1.273.144-1.8.624-1.8 1.488s.648 1.416 1.824 1.416a2.472 2.472 0 002.76-2.64zM209.263 26.258c0 3.936-2.04 6.48-5.4 6.48a4.209 4.209 0 01-3.744-1.944v1.656h-3.649V15.36h3.744v6.217a4.18 4.18 0 013.649-1.8c3.36 0 5.4 2.544 5.4 6.48zm-3.792-.096c0-2.352-.985-3.385-2.64-3.385-1.68 0-2.665 1.128-2.665 3.48s.984 3.48 2.664 3.48c1.656.001 2.64-1.223 2.64-3.575zM210.917 20.065h3.744V32.45h-3.744zm.097-4.585h3.576v3.17h-3.576zM216.845 15.36h3.744v17.09h-3.744zM222.773 20.065h3.745V32.45h-3.745zm.096-4.585h3.576v3.17h-3.576zM233.477 22.802v5.784c0 .912.457 1.08 1.417 1.08h.96v2.784a14.103 14.103 0 01-1.729.096c-3.096 0-4.391-1.008-4.391-3.552v-6.192h-1.85v-2.737h1.85v-3.672h3.744v3.672h2.376v2.737zM249.558 20.065l-4.489 12.866c-1.08 3.12-2.496 4.248-6.168 4.248-.72 0-1.08-.025-1.465-.048V34.25h1.2c1.393 0 1.873-.792 1.873-1.728a8.08 8.08 0 00-.577-2.4l-3.551-10.056h4.032l.552 1.752c.72 2.424 1.44 4.969 2.112 7.8a153.282 153.282 0 012.064-7.777l.552-1.775z"/>
  </g>
</svg>
